<?xml version="1.0" standalone="no"?><!DOCTYPE svg PUBLIC "-//W3C//DTD SVG 1.1//EN" "http://www.w3.org/Graphics/SVG/1.1/DTD/svg11.dtd"><svg width="200" height="200" viewBox="0 0 200 200" version="1.1" xmlns="http://www.w3.org/2000/svg" xmlns:xlink="http://www.w3.org/1999/xlink"><defs><style type="text/css"><![CDATA[
@font-face { font-family: ifont; src: url("//at.alicdn.com/t/font_1442373896_4754455.eot?#iefix") format("embedded-opentype"), url("//at.alicdn.com/t/font_1442373896_4754455.woff") format("woff"), url("//at.alicdn.com/t/font_1442373896_4754455.ttf") format("truetype"), url("//at.alicdn.com/t/font_1442373896_4754455.svg#ifont") format("svg"); }

]]></style></defs><g class="transform-group"><g transform="scale(0.1953125, 0.1953125)"><path d="M287.762401 106.182344M875.576087 295.234071 618.641297 38.257326C606.167195 25.783223 585.944618 25.780153 573.467445 38.254256c-12.474103 12.473079-12.476149 32.697703-0.00307 45.173852l200.384843 200.418612-268.474614 0c-48.115857 0-94.809319 9.429767-138.783857 28.02938-42.459021 17.958-80.583317 43.661406-113.315812 76.392878C220.543464 421.001473 194.841082 459.127815 176.882058 501.587859c-18.599613 43.976584-28.030403 90.673116-28.030403 138.795113 0 48.116881 9.43079 94.809319 28.031427 138.782833 17.959024 42.456974 43.661406 80.579223 76.393901 113.310695 32.731472 32.729425 70.856791 58.430784 113.314789 76.387761 43.974537 18.59859 90.667999 28.02938 138.782833 28.02938 17.641799 0 31.943526-14.301727 31.943526-31.942503 0-17.641799-14.301727-31.943526-31.943526-31.943526-161.361061 0-292.637943-131.270742-292.637943-292.625664 0-161.368224 131.276882-292.651246 292.637943-292.651246l272.52179 0-205.977211 205.960839c-12.475126 12.473079-12.476149 32.698726-0.00307 45.173852 6.238075 6.239098 14.412244 9.357112 22.587438 9.357112 8.17417 0 16.349363-3.118014 22.585391-9.355065l258.482029-258.461563C888.046097 327.933821 888.049167 307.709197 875.576087 295.234071z" fill="#272636"></path></g></g></svg>